<svg xmlns="http://www.w3.org/2000/svg" width="38" height="38" viewBox="0 0 38 38" fill="none"><path d="M5.09863 19.0002H15.042L15.8336 17.4168L19.0003 24.5418L22.167 13.4585L24.542 19.0002H32.8861" stroke="#E4AF6C" stroke-width="2" stroke-linecap="round" stroke-linejoin="round"></path><path d="M30.0837 22.1667C32.4428 19.855 34.8337 17.0842 34.8337 13.4583C34.8337 11.1487 33.9162 8.93374 32.283 7.30061C30.6499 5.66748 28.4349 4.75 26.1253 4.75C23.3387 4.75 21.3753 5.54167 19.0003 7.91667C16.6253 5.54167 14.662 4.75 11.8753 4.75C9.56573 4.75 7.35073 5.66748 5.7176 7.30061C4.08447 8.93374 3.16699 11.1487 3.16699 13.4583C3.16699 17.1 5.54199 19.8708 7.91699 22.1667L19.0003 33.25L30.0837 22.1667Z" stroke="white" stroke-width="2" stroke-linecap="round" stroke-linejoin="round"></path></svg>