<svg xmlns="http://www.w3.org/2000/svg" width="39" height="38" viewBox="0 0 39 38" fill="none"><path d="M28.9997 23.7502L25.833 20.5835" stroke="#E4AF6C" stroke-width="2" stroke-linecap="round" stroke-linejoin="round"></path><path d="M24.2497 28.5002L21.083 25.3335" stroke="#E4AF6C" stroke-width="2" stroke-linecap="round" stroke-linejoin="round"></path><path d="M30.5837 22.1667C32.9428 19.855 35.3337 17.0842 35.3337 13.4583C35.3337 11.1487 34.4162 8.93374 32.783 7.30061C31.1499 5.66748 28.9349 4.75 26.6253 4.75C23.8387 4.75 21.8753 5.54167 19.5003 7.91667C17.1253 5.54167 15.162 4.75 12.3753 4.75C10.0657 4.75 7.85073 5.66748 6.2176 7.30061C4.58447 8.93374 3.66699 11.1487 3.66699 13.4583C3.66699 17.1 6.04199 19.8708 8.41699 22.1667L19.5003 33.25L30.5837 22.1667Z" stroke="white" stroke-width="2" stroke-linecap="round" stroke-linejoin="round"></path><path d="M19.4997 7.9165L14.813 12.6032C14.4913 12.9225 14.236 13.3024 14.0618 13.7209C13.8876 14.1394 13.7979 14.5882 13.7979 15.0415C13.7979 15.4948 13.8876 15.9436 14.0618 16.3621C14.236 16.7806 14.4913 17.1605 14.813 17.4798C16.1114 18.7782 18.1855 18.8257 19.563 17.5907L22.8405 14.5823C23.6621 13.8369 24.7317 13.424 25.841 13.424C26.9503 13.424 28.0199 13.8369 28.8414 14.5823L33.528 18.794" stroke="white" stroke-width="2" stroke-linecap="round" stroke-linejoin="round"></path></svg>