<svg xmlns="http://www.w3.org/2000/svg" width="38" height="38" viewBox="0 0 38 38" fill="none"><path d="M17.417 26.9168L20.5837 30.0835C20.8955 30.3954 21.2658 30.6428 21.6733 30.8116C22.0808 30.9804 22.5176 31.0673 22.9587 31.0673C23.3997 31.0673 23.8365 30.9804 24.244 30.8116C24.6515 30.6428 25.0218 30.3954 25.3337 30.0835C25.6455 29.7716 25.893 29.4013 26.0617 28.9938C26.2305 28.5863 26.3174 28.1496 26.3174 27.7085C26.3174 27.2674 26.2305 26.8307 26.0617 26.4232C25.893 26.0157 25.6455 25.6454 25.3337 25.3335" stroke="white" stroke-width="2" stroke-linecap="round" stroke-linejoin="round"></path><path d="M4.75033 4.75L3.16699 22.1667L13.4587 32.4583C14.0885 33.0882 14.9429 33.4421 15.8337 33.4421C16.7245 33.4421 17.5788 33.0882 18.2087 32.4583C18.8385 31.8284 19.1924 30.9741 19.1924 30.0833C19.1924 29.1925 18.8385 28.3382 18.2087 27.7083" stroke="white" stroke-width="2" stroke-linecap="round" stroke-linejoin="round"></path><path d="M4.75 6.3335H17.4167" stroke="white" stroke-width="2" stroke-linecap="round" stroke-linejoin="round"></path><path d="M22.167 22.1665L26.1254 26.1248C26.7552 26.7547 27.6096 27.1086 28.5004 27.1086C29.3912 27.1086 30.2455 26.7547 30.8754 26.1248C31.5052 25.4949 31.8591 24.6406 31.8591 23.7498C31.8591 22.859 31.5052 22.0047 30.8754 21.3748L24.732 15.2315C23.8414 14.342 22.6341 13.8423 21.3754 13.8423C20.1166 13.8423 18.9093 14.342 18.0187 15.2315L16.6254 16.6248C15.9955 17.2547 15.1412 17.6086 14.2504 17.6086C13.3596 17.6086 12.5052 17.2547 11.8754 16.6248C11.2455 15.9949 10.8916 15.1406 10.8916 14.2498C10.8916 13.359 11.2455 12.5047 11.8754 11.8748L16.3245 7.42565C17.7689 5.98505 19.6525 5.06736 21.6772 4.81786C23.7019 4.56836 25.752 5.0013 27.5029 6.04815L28.247 6.49149C28.9212 6.89838 29.7228 7.03951 30.4954 6.88732L33.2504 6.33315" stroke="#E4AF6C" stroke-width="2" stroke-linecap="round" stroke-linejoin="round"></path><path d="M33.2503 4.75L34.8337 22.1667H31.667" stroke="white" stroke-width="2" stroke-linecap="round" stroke-linejoin="round"></path></svg>