<svg xmlns="http://www.w3.org/2000/svg" width="39" height="38" viewBox="0 0 39 38" fill="none"><path d="M10.0003 14.2502H7.62533C6.57551 14.2502 5.56869 13.8331 4.82636 13.0908C4.08403 12.3485 3.66699 11.3416 3.66699 10.2918C3.66699 9.24201 4.08403 8.2352 4.82636 7.49287C5.56869 6.75053 6.57551 6.3335 7.62533 6.3335H10.0003" stroke="#E4AF6C" stroke-width="2" stroke-linecap="round" stroke-linejoin="round"></path><path d="M29 14.2502H31.375C32.4248 14.2502 33.4316 13.8331 34.174 13.0908C34.9163 12.3485 35.3333 11.3416 35.3333 10.2918C35.3333 9.24201 34.9163 8.2352 34.174 7.49287C33.4316 6.75053 32.4248 6.3335 31.375 6.3335H29" stroke="#E4AF6C" stroke-width="2" stroke-linecap="round" stroke-linejoin="round"></path><path d="M6.83301 34.8335H32.1663" stroke="white" stroke-width="2" stroke-linecap="round" stroke-linejoin="round"></path><path d="M16.333 23.2114V26.9164C16.333 27.7873 15.5888 28.4681 14.7972 28.8323C12.9288 29.6873 11.583 32.0464 11.583 34.8331" stroke="white" stroke-width="2" stroke-linecap="round" stroke-linejoin="round"></path><path d="M22.667 23.2114V26.9164C22.667 27.7873 23.4112 28.4681 24.2028 28.8323C26.0712 29.6873 27.417 32.0464 27.417 34.8331" stroke="white" stroke-width="2" stroke-linecap="round" stroke-linejoin="round"></path><path d="M29 3.1665H10V14.2498C10 16.7694 11.0009 19.1858 12.7825 20.9674C14.5641 22.7489 16.9804 23.7498 19.5 23.7498C22.0196 23.7498 24.4359 22.7489 26.2175 20.9674C27.9991 19.1858 29 16.7694 29 14.2498V3.1665Z" stroke="white" stroke-width="2" stroke-linecap="round" stroke-linejoin="round"></path></svg>