<svg xmlns="http://www.w3.org/2000/svg" width="56" height="56" viewBox="0 0 56 56" fill="none"><rect x="0.5" y="0.503174" width="55" height="55" rx="27.5" fill="black"></rect><path d="M22.7042 38.3364C25.1695 39.601 28.0053 39.9436 30.7008 39.3023C33.3962 38.661 35.774 37.0781 37.4056 34.8388C39.0373 32.5995 39.8155 29.8511 39.6 27.0888C39.3845 24.3265 38.1895 21.732 36.2303 19.7728C34.2711 17.8137 31.6766 16.6186 28.9143 16.4032C26.152 16.1877 23.4036 16.9658 21.1643 18.5975C18.925 20.2291 17.3421 22.6069 16.7008 25.3023C16.0596 27.9978 16.4021 30.8337 17.6667 33.2989L15.0834 40.9197L22.7042 38.3364Z" stroke="white" stroke-width="2" stroke-linecap="round" stroke-linejoin="round"></path><path d="M22.8334 28.0032H22.8463" stroke="white" stroke-width="2" stroke-linecap="round" stroke-linejoin="round"></path><path d="M28 28.0032H28.0129" stroke="white" stroke-width="2" stroke-linecap="round" stroke-linejoin="round"></path><path d="M33.1666 28.0032H33.1795" stroke="white" stroke-width="2" stroke-linecap="round" stroke-linejoin="round"></path></svg>